<?xml version="1.0" encoding="UTF-8" standalone="no"?>
<!-- Created with Inkscape (http://www.inkscape.org/) -->

<svg
   version="1.1"
   id="svg76"
   width="440"
   height="440"
   viewBox="0 0 440 440"
   sodipodi:docname="OGO_A_Transparaent.svg"
   inkscape:version="1.1.2 (0a00cf5339, 2022-02-04)"
   xmlns:inkscape="http://www.inkscape.org/namespaces/inkscape"
   xmlns:sodipodi="http://sodipodi.sourceforge.net/DTD/sodipodi-0.dtd"
   xmlns="http://www.w3.org/2000/svg"
   xmlns:svg="http://www.w3.org/2000/svg">
  <defs
     id="defs80" />
  <sodipodi:namedview
     id="namedview78"
     pagecolor="#ffffff"
     bordercolor="#666666"
     borderopacity="1.0"
     inkscape:pageshadow="2"
     inkscape:pageopacity="0.0"
     inkscape:pagecheckerboard="0"
     showgrid="false"
     inkscape:zoom="1.8545455"
     inkscape:cx="219.99999"
     inkscape:cy="224.31372"
     inkscape:window-width="1920"
     inkscape:window-height="1018"
     inkscape:window-x="0"
     inkscape:window-y="32"
     inkscape:window-maximized="1"
     inkscape:current-layer="g82" />
  <g
     inkscape:groupmode="layer"
     inkscape:label="Image"
     id="g82">
    <g
       id="g229">
      <path
         style="fill:#5fd5b0;stroke-width:0.613073"
         d="M 154.16356,146.67935 V 79.397404 l 6.28401,0.344418 c 24.94121,1.366996 48.62529,20.184181 57.27539,45.505738 4.41159,12.91412 4.34442,30.07208 -0.16721,42.70807 -9.2297,25.85021 -31.36048,42.96377 -58.9474,45.58357 l -4.44479,0.42209 z"
         id="path170" />
      <path
         style="fill:#5e4570;stroke-width:0.613073"
         d="m 210.25989,280.28936 c -23.90185,-4.26753 -44.04268,-21.22031 -52.14392,-43.89021 l -0.81021,-2.26723 2.87369,-0.34503 c 8.26411,-0.99223 15.77967,-2.51702 21.31244,-4.32395 23.93603,-7.81718 44.32505,-26.92063 53.64001,-50.25787 2.68499,-6.72683 5.31035,-17.46243 5.82673,-23.82664 0.23659,-2.91574 0.69111,-5.30135 1.01006,-5.30135 0.31895,0 2.60034,0.80902 5.06975,1.79782 18.97428,7.59767 34.26079,25.05928 39.52182,45.14535 7.9664,30.41483 -6.4627,62.43046 -34.65225,76.88726 -12.54723,6.43474 -28.04828,8.81001 -41.64812,6.38185 z"
         id="path168" />
    </g>
  </g>
</svg>
