<?xml version="1.0" encoding="UTF-8" standalone="no"?>
<!-- Created with Inkscape (http://www.inkscape.org/) -->

<svg
   version="1.1"
   id="svg76"
   width="440"
   height="440"
   viewBox="0 0 440 440"
   sodipodi:docname="OGO_A_Transparaent.svg"
   inkscape:version="1.1.2 (0a00cf5339, 2022-02-04)"
   xmlns:inkscape="http://www.inkscape.org/namespaces/inkscape"
   xmlns:sodipodi="http://sodipodi.sourceforge.net/DTD/sodipodi-0.dtd"
   xmlns="http://www.w3.org/2000/svg"
   xmlns:svg="http://www.w3.org/2000/svg">
  <defs
     id="defs80" />
  <sodipodi:namedview
     id="namedview78"
     pagecolor="#ffffff"
     bordercolor="#666666"
     borderopacity="1.0"
     inkscape:pageshadow="2"
     inkscape:pageopacity="0.0"
     inkscape:pagecheckerboard="0"
     showgrid="false"
     inkscape:zoom="1.8545455"
     inkscape:cx="220"
     inkscape:cy="224.31373"
     inkscape:window-width="1920"
     inkscape:window-height="1018"
     inkscape:window-x="0"
     inkscape:window-y="32"
     inkscape:window-maximized="1"
     inkscape:current-layer="g82" />
  <g
     inkscape:groupmode="layer"
     inkscape:label="Image"
     id="g82">
    <g
       id="g166"
       transform="matrix(0.45980603,0,0,0.45980603,121.3423,100.80029)">
      <path
         style="fill:#ffffff;stroke-width:1.33333"
         d="M 0,220 V 0 h 39.333333 39.333334 v 146.15533 146.15532 l 9,-0.89452 c 22.694143,-2.25561 40.148463,-7.16357 57.666663,-16.21524 36.93904,-19.0864 63.94814,-53.20381 74.83816,-94.53422 2.75368,-10.45094 3.15979,-15.01208 3.14598,-35.33334 -0.0133,-19.57539 -0.48567,-25.1838 -2.93298,-34.82308 C 213.88363,84.90508 201.82053,63.404168 182.94096,43.771951 161.24088,21.206793 137.7386,8.5504855 103.33333,0.90214116 c -1.46666,-0.32604232 73.68334,-0.66240504 167,-0.74747269 L 440,0 V 220 440 H 220 0 Z m 259.33333,214.73588 c 29.00103,-7.60069 49.5615,-19.33147 70.03538,-39.95868 43.97208,-44.30141 54.52842,-110.65533 26.6389,-167.44387 -8.18218,-16.66053 -16.78332,-28.05417 -31.89293,-42.24749 -13.20181,-12.40123 -28.03869,-21.93444 -44.44756,-28.55911 l -11.00045,-4.44116 -0.95586,10.17123 c -7.59993,80.87051 -65.25728,148.04249 -143.89036,167.63521 -7.60125,1.89399 -19.09874,3.97138 -25.549993,4.61644 -6.451249,0.64507 -11.987012,1.43032 -12.301694,1.745 -0.823852,0.82386 4.016714,13.12712 9.26496,23.54875 9.497697,18.85991 29.156067,41.12509 47.000827,53.23341 16.68577,11.32191 37.27394,19.79851 57.30581,23.59407 14.883,2.81997 45.50823,1.84999 59.79297,-1.8938 z"
         id="path172" />
      <path
         style="fill:#5fd5b0;stroke-width:1.33333"
         d="M 78.666667,145.94384 V -0.38296857 L 92.333333,0.36608371 C 146.57623,3.339066 198.08508,44.263248 216.89757,99.333333 c 9.59447,28.086017 9.44838,65.401677 -0.36364,92.882797 -20.07304,56.21983 -68.20373,93.43891 -128.200597,99.13652 l -9.666666,0.91799 z"
         id="path170" />
      <path
         style="fill:#5e4570;stroke-width:1.33333"
         d="M 200.66667,436.52291 C 148.68419,427.24176 104.88132,390.37235 87.262499,341.06917 l -1.762067,-4.93084 6.249784,-0.75038 c 17.973034,-2.15794 34.318094,-5.4741 46.350934,-9.40386 52.0568,-17.00105 96.39946,-58.54781 116.65792,-109.30234 5.83938,-14.62971 11.54909,-37.97782 12.67214,-51.81888 0.51454,-6.34124 1.50304,-11.52954 2.1967,-11.52954 0.69366,0 5.6553,1.75948 11.02586,3.90996 41.26582,16.52364 74.51138,54.49967 85.95323,98.18346 17.32557,66.14709 -14.05527,135.77565 -75.36276,167.21672 -27.28809,13.99448 -61.00024,19.16028 -90.57757,13.87944 z"
         id="path168" />
    </g>
  </g>
</svg>
